# xmcd
#
# Track frame offsets:
#	150
#	16033
#	46713
#	67230
#	84071
#	103170
#	123415
#	138609
#	161106
#	174609
#	200742
#
# Disc length: 3049 seconds
#
# Revision: 1
# Processed by: cddbd v1.4PL0 Copyright (c) Steve Scherf et al.
# Submitted via: EasyCDDAExtractor 5.1.0
#
DISCID=950be70b
DTITLE=The Big Five-O  - Texas Tone
DYEAR=2001
DGENRE=Blues
TTITLE0=Blast off
TTITLE1=Frankie and Johnny
TTITLE2=Headlights
TTITLE3=Tell that woman
TTITLE4=This little voice
TTITLE5=Cheatin'
TTITLE6=Staggerlee
TTITLE7=Texas tone
TTITLE8=Sleep-in job
TTITLE9=Crazy blues
TTITLE10=Gone boogie
EXTD=
EXTT0=
EXTT1=
EXTT2=
EXTT3=
EXTT4=
EXTT5=
EXTT6=
EXTT7=
EXTT8=
EXTT9=
EXTT10=
PLAYORDER=
